PathFileType	4	(X/Y/Z)	/Users/itak/Documents/Research/Walk-IL/dataset/trc/00273_00010.trc
DataRate	CameraRate	NumFrames	NumMarkers	Units	OrigDataRate	OrigDataStartFrame	OrigNumFrames
100.000000	100.000000	4	53	mm	100.000000	315	505
Frame#	Time	RPSI			LPSI			L3			STRN			T10			C7			CLAV			RBAK			LBAK			LSHO			LUPA			LAEL			LAOL			LWTS			LWPS			LFRA			LIFD			LHPS			LHTS			RSHO			RUPA			RAEL			RAOL			RWTS			RWPS			RFRA			RIFD			RHTS			RHPS			RBHD			LFHD			RFHD			LBHD			LHIP			RHIP			RASI			LKNE			LTHI			LANK			LTIP			LTOE			LMT1			LMT5			LHEE			RKNE			RTHI			RANK			RTIP			RTOE			RMT1			RMT5			RHEE			LASI			
		X1	Y1	Z1	X2	Y2	Z2	X3	Y3	Z3	X4	Y4	Z4	X5	Y5	Z5	X6	Y6	Z6	X7	Y7	Z7	X8	Y8	Z8	X9	Y9	Z9	X10	Y10	Z10	X11	Y11	Z11	X12	Y12	Z12	X13	Y13	Z13	X14	Y14	Z14	X15	Y15	Z15	X16	Y16	Z16	X17	Y17	Z17	X18	Y18	Z18	X19	Y19	Z19	X20	Y20	Z20	X21	Y21	Z21	X22	Y22	Z22	X23	Y23	Z23	X24	Y24	Z24	X25	Y25	Z25	X26	Y26	Z26	X27	Y27	Z27	X28	Y28	Z28	X29	Y29	Z29	X30	Y30	Z30	X31	Y31	Z31	X32	Y32	Z32	X33	Y33	Z33	X34	Y34	Z34	X35	Y35	Z35	X36	Y36	Z36	X37	Y37	Z37	X38	Y38	Z38	X39	Y39	Z39	X40	Y40	Z40	X41	Y41	Z41	X42	Y42	Z42	X43	Y43	Z43	X44	Y44	Z44	X45	Y45	Z45	X46	Y46	Z46	X47	Y47	Z47	X48	Y48	Z48	X49	Y49	Z49	X50	Y50	Z50	X51	Y51	Z51	X52	Y52	Z52	X53	Y53	Z53	

316	3.15	-743.259521484375	983.86083984375	79.03759002685547	-749.544677734375	991.7095336914062	-95.45243072509766	-722.2373046875	1068.26611328125	-11.24278163909912	-446.594482421875	1221.805297851562	-15.63628387451172	-721.8248901367188	1191.174560546875	-14.2274923324585	-645.8541259765625	1427.611694335938	-33.99532318115234	-500.0595397949219	1326.966430664062	-20.46069145202637	-713.1605224609375	1298.722045898438	45.04038619995117	-662.6409301757812	1390.273559570312	-137.5714569091797	-570.5180053710938	1384.453125	-184.7114868164062	-605.658447265625	1272.281127929688	-261.2361755371094	-614.8470458984375	1075.7314453125	-288.7627868652344	-680.5174560546875	1056.841430664062	-234.3547058105469	-499.9365844726562	878.808349609375	-261.035400390625	-534.7410278320312	862.127685546875	-322.8919067382812	-590.0687866210938	979.2251586914062	-306.1624145507812	-445.0947875976562	700.8490600585938	-278.9628295898438	-506.5339660644531	778.49658203125	-327.8239135742188	-452.614013671875	793.6270751953125	-293.5260314941406	-584.5734252929688	1403.700439453125	126.9096527099609	-599.064697265625	1349.791748046875	195.1831970214844	-658.3347778320312	1096.55322265625	260.43212890625	-693.13623046875	1087.616577148438	170.9176483154297	-562.647705078125	872.7009887695312	220.7592926025391	-609.037353515625	868.4541625976562	291.9009094238281	-640.43310546875	1028.76025390625	276.6065063476562	-555.6370849609375	688.5863037109375	219.3881378173828	-533.4220581054688	757.8294677734375	239.9072570800781	-584.6369018554688	756.7216796875	288.4258728027344	-609.3587646484375	1580.223022460938	41.39767074584961	-431.9070434570312	1607.754150390625	-72.601806640625	-436.4649047851562	1604.289916992188	21.00257110595703	-603.3745727539062	1575.741088867188	-104.9875793457031	-687.5472412109375	948.9769897460938	-198.8345336914062	-635.03759765625	934.0164184570312	174.3445587158203	-519.9994506835938	943.2802734375	94.96537017822266	-632.9785766601562	477.3191833496094	-148.9665222167969	-635.2282104492188	619.669677734375	-177.5773315429688	-769.2466430664062	49.77763748168945	-96.77203369140625	-705.3778686523438	255.8738708496094	-129.9604644775391	-564.0261840820312	40.62576675415039	-30.23013305664062	-637.16845703125	30.38408851623535	4.695206165313721	-644.0034790039062	49.50871658325195	-105.2464599609375	-819.4221801757812	44.39502716064453	-40.85385513305664	-406.3540954589844	523.150390625	139.4610595703125	-513.1201782226562	761.3675537109375	164.7726898193359	-519.8956298828125	81.1749267578125	136.6660614013672	-403.0479736328125	396.3633422851562	133.4040985107422	-332.7014465332031	90.84619140625	79.4425048828125	-388.0029907226562	82.10230255126953	39.53408050537109	-415.4724731445312	67.95774841308594	155.4003753662109	-574.2249755859375	82.54213714599609	88.65924835205078	-545.4635009765625	951.1054077148438	-155.0341491699219	
317	3.16	-749.2760009765625	984.943359375	79.00960540771484	-756.1753540039062	992.7141723632812	-95.42911529541016	-728.4893188476562	1069.5107421875	-10.8947229385376	-453.1255493164062	1223.529541015625	-16.43294525146484	-728.5882568359375	1192.240112304688	-13.48162841796875	-653.0369262695312	1428.64013671875	-33.56454849243164	-507.0426635742188	1328.53564453125	-20.95570182800293	-719.51904296875	1299.645874023438	45.96043395996094	-670.3515014648438	1391.488403320312	-136.9294281005859	-578.562744140625	1386.001586914062	-184.7394256591797	-614.4879150390625	1274.2099609375	-261.2845153808594	-625.7144775390625	1077.633056640625	-289.0007629394531	-690.2422485351562	1059.294677734375	-233.1804656982422	-514.3092651367188	877.7174682617188	-265.302734375	-551.3016357421875	862.1930541992188	-326.2240295410156	-603.2914428710938	980.513916015625	-307.5570068359375	-464.3763427734375	698.5155029296875	-285.9284057617188	-525.318359375	777.9644775390625	-332.3150024414062	-470.0146179199219	791.524169921875	-299.65185546875	-590.572265625	1404.892211914062	126.8113632202148	-604.2084350585938	1351.02294921875	195.2599945068359	-662.2531127929688	1097.753784179688	261.0739440917969	-697.2968139648438	1088.45849609375	171.6717529296875	-567.53662109375	872.93017578125	222.6722869873047	-614.1051635742188	869.6533203125	293.9611206054688	-644.5674438476562	1029.955444335938	277.5931701660156	-562.5237426757812	688.6392211914062	223.1843566894531	-539.5547485351562	757.8875122070312	242.9528198242188	-590.7081298828125	757.7628173828125	291.5442199707031	-615.9634399414062	1581.624389648438	41.10186767578125	-439.0397033691406	1608.47900390625	-73.96168518066406	-443.1481628417969	1605.2529296875	19.68020629882812	-610.7930908203125	1576.76416015625	-105.3041915893555	-694.3854370117188	950.0740356445312	-198.9219665527344	-640.8434448242188	935.0115966796875	173.9971008300781	-526.0874633789062	944.39453125	94.32530975341797	-636.7962036132812	478.1579895019531	-149.3613891601562	-639.86962890625	620.4486083984375	-177.9486083984375	-769.2778930664062	49.74400329589844	-96.72539520263672	-707.3633422851562	256.2157897949219	-130.0542755126953	-563.972900390625	40.60283279418945	-30.23366546630859	-637.247314453125	30.46863746643066	4.740242958068848	-643.9620361328125	49.5037841796875	-105.2793350219727	-819.4530029296875	44.27150726318359	-40.80757141113281	-412.8393249511719	523.803955078125	139.5050201416016	-519.1483764648438	762.257568359375	164.2705383300781	-543.6341552734375	86.53288269042969	137.7679595947266	-413.8416137695312	396.9766540527344	133.5422210693359	-356.4269409179688	89.87757110595703	80.02590942382812	-411.9779052734375	83.0921630859375	40.36665344238281	-439.6683044433594	69.82534027099609	156.2191162109375	-597.8942260742188	89.71259307861328	89.84146881103516	-552.2220458984375	952.4592895507812	-155.6291198730469	
318	3.17	-755.1788940429688	985.8615112304688	79.07197570800781	-762.7940673828125	993.5125122070312	-95.33952331542969	-734.6768188476562	1070.59130859375	-10.48998928070068	-459.6229248046875	1225.134765625	-17.23952674865723	-735.1971435546875	1193.055908203125	-12.65857028961182	-660.2022705078125	1429.511108398438	-33.06808090209961	-513.9547729492188	1330.006103515625	-21.43901443481445	-725.7674560546875	1300.359497070312	46.92828750610352	-678.0651245117188	1392.537231445312	-136.2312927246094	-586.6012573242188	1387.439331054688	-184.7223052978516	-623.2855224609375	1276.036376953125	-261.296630859375	-636.35107421875	1079.429809570312	-289.2406311035156	-699.8095092773438	1061.638427734375	-232.1260986328125	-528.8453369140625	876.4609985351562	-269.4004821777344	-567.9246826171875	862.1868896484375	-329.3644104003906	-616.3705444335938	981.6971435546875	-308.8888854980469	-484.2791748046875	696.059326171875	-292.4077453613281	-544.3760375976562	777.3658447265625	-336.4891357421875	-487.7654418945312	789.2091064453125	-305.4058227539062	-596.5333251953125	1405.916870117188	126.7618255615234	-609.3236083984375	1352.08740234375	195.3657073974609	-666.1243286132812	1098.798583984375	261.7518615722656	-701.4331665039062	1089.14306640625	172.4820709228516	-572.43017578125	873.0280151367188	224.5421600341797	-619.0197143554688	870.7584228515625	296.0517883300781	-648.621826171875	1031.009887695312	278.6107177734375	-569.31591796875	688.5952758789062	227.0753021240234	-545.5770874023438	757.865234375	245.9773559570312	-596.5792846679688	758.7325439453125	294.7541198730469	-622.6259765625	1582.86962890625	40.89045333862305	-446.2543029785156	1609.150390625	-75.20284271240234	-449.8917541503906	1606.124877929688	18.45553207397461	-618.2595825195312	1577.686401367188	-105.5284576416016	-701.213134765625	950.9669799804688	-198.9563446044922	-646.4867553710938	935.8023071289062	173.6792297363281	-532.1224365234375	945.244873046875	93.65229034423828	-640.5654907226562	478.88818359375	-149.743896484375	-644.4458618164062	621.1070556640625	-178.2979583740234	-769.3416748046875	49.67630386352539	-96.67143249511719	-709.3125610351562	256.4735107421875	-130.1301422119141	-563.9156494140625	40.57841110229492	-30.23119354248047	-637.341796875	30.61919403076172	4.800445556640625	-643.931396484375	49.49822235107422	-105.3054046630859	-819.498291015625	44.08177947998047	-40.74260711669922	-419.7779235839844	523.9404296875	139.6746978759766	-525.236572265625	762.8092651367188	163.9126434326172	-567.751220703125	92.19911956787109	138.9527587890625	-425.0797119140625	397.2687072753906	133.7852325439453	-380.7195739746094	89.04745483398438	80.79826354980469	-436.4385986328125	84.26298522949219	41.33843612670898	-464.3962097167969	71.92609405517578	157.1718597412109	-621.8570556640625	97.16717529296875	91.06963348388672	-558.9155883789062	953.6572875976562	-156.2681274414062	
319	3.18	-760.9828491210938	986.5833740234375	79.20802307128906	-769.3728637695312	994.0841674804688	-95.19492340087891	-740.8146362304688	1071.459594726562	-10.05236053466797	-466.0988464355469	1226.578125	-18.0681037902832	-741.6546020507812	1193.609497070312	-11.78107166290283	-667.3403930664062	1430.213745117188	-32.50896835327148	-520.8002319335938	1331.335327148438	-21.91748237609863	-731.9156494140625	1300.851440429688	47.93159866333008	-685.7853393554688	1393.40087890625	-135.4857177734375	-594.6392822265625	1388.726196289062	-184.6688232421875	-632.0703735351562	1277.709350585938	-261.275146484375	-646.7904663085938	1081.076171875	-289.5174560546875	-709.2464599609375	1063.818237304688	-231.2060241699219	-543.5169067382812	875.0474243164062	-273.303466796875	-584.5640869140625	862.0979614257812	-332.3051147460938	-629.3013916015625	982.7402954101562	-310.1725769042969	-504.7192077636719	693.5174560546875	-298.3447570800781	-563.6307983398438	776.7103271484375	-340.3347473144531	-505.8055419921875	786.714599609375	-310.7556457519531	-602.4472045898438	1406.746704101562	126.7614059448242	-614.4134521484375	1352.952514648438	195.4957427978516	-669.955322265625	1099.657958984375	262.4853820800781	-705.5714111328125	1089.638793945312	173.3692474365234	-577.3383178710938	872.9859619140625	226.3887023925781	-623.7987060546875	871.7265625	298.16357421875	-652.6033325195312	1031.8935546875	279.6747131347656	-575.9512329101562	688.4456176757812	230.9825744628906	-551.4560546875	757.7581787109375	248.9541320800781	-602.236572265625	759.5892333984375	298.0021057128906	-629.3394775390625	1583.933349609375	40.76825714111328	-453.5568237304688	1609.765991210938	-76.33558654785156	-456.694580078125	1606.902587890625	17.32440567016602	-625.77490234375	1578.483032226562	-105.6593322753906	-708.0055541992188	951.645263671875	-198.9568786621094	-651.9859008789062	936.373291015625	173.3844757080078	-538.0894165039062	945.828857421875	92.95372772216797	-644.2896118164062	479.5140075683594	-150.1005554199219	-648.9976196289062	621.65478515625	-178.6253662109375	-769.4376831054688	49.5711669921875	-96.61221313476562	-711.227294921875	256.6452026367188	-130.1899566650391	-563.8602294921875	40.55684661865234	-30.22255897521973	-637.4467163085938	30.84406471252441	4.879013538360596	-643.9182739257812	49.49479675292969	-105.3247833251953	-819.551513671875	43.81569671630859	-40.6588020324707	-427.1888122558594	523.535888671875	139.9930572509766	-531.4044189453125	762.9970703125	163.6820983886719	-592.1804809570312	98.12256622314453	140.18994140625	-436.7767639160156	397.2151794433594	134.1467742919922	-405.5182495117188	88.34371948242188	81.74357604980469	-461.3298034667969	85.58850860595703	42.42627716064453	-489.5983276367188	74.22396087646484	158.2392272949219	-646.073486328125	104.8833847045898	92.3173828125	-565.5078735351562	954.6837768554688	-156.9454956054688	
